<?xml version="1.0" encoding="utf-8"?>
<!-- Generator: Adobe Illustrator 23.0.6, SVG Export Plug-In . SVG Version: 6.00 Build 0)  -->
<svg version="1.1" id="Layer_1" xmlns="http://www.w3.org/2000/svg" xmlns:xlink="http://www.w3.org/1999/xlink" x="0px" y="0px" width="158" height="64"
	 viewBox="0 0 450 180" style="enable-background:new 0 0 450 180;" xml:space="preserve">
<style type="text/css">
	.st0{clip-path:url(#SVGID_2_);}
	.st1{opacity:0.4;clip-path:url(#SVGID_4_);enable-background:new    ;}
	.st2{clip-path:url(#SVGID_4_);enable-background:new    ;}
	.st3{clip-path:url(#SVGID_4_);}
	.st4{clip-path:url(#SVGID_4_);fill:#F15A29;}
</style>
<g>
	<defs>
		<rect id="SVGID_1_" x="-280" y="-180" width="960" height="560"/>
	</defs>
	<clipPath id="SVGID_2_">
		<use xlink:href="#SVGID_1_"  style="overflow:visible;"/>
	</clipPath>
	<g class="st0">
		<defs>
			<rect id="SVGID_3_" x="-280" y="-180" width="960" height="560"/>
		</defs>
		<clipPath id="SVGID_4_">
			<use xlink:href="#SVGID_3_"  style="overflow:visible;"/>
		</clipPath>
		<g class="st1">
			<g>
				<defs>
					<rect id="SVGID_5_" x="-246.7" y="-147.1" width="57.4" height="20.1"/>
				</defs>
				<clipPath id="SVGID_6_">
					<use xlink:href="#SVGID_5_"  style="overflow:visible;"/>
				</clipPath>
				<g style="clip-path:url(#SVGID_6_);">
					<text transform="matrix(1 0 0 1 -246.6646 -131.8311)" style="font-family:'Montserrat-SemiBold'; font-size:18px;">Style 1</text>
				</g>
			</g>
		</g>
		<g class="st2">
			<g>
				<defs>
					<rect id="SVGID_7_" x="520.8" y="-147.1" width="124.2" height="20.1"/>
				</defs>
				<clipPath id="SVGID_8_">
					<use xlink:href="#SVGID_7_"  style="overflow:visible;"/>
				</clipPath>
				<g style="clip-path:url(#SVGID_8_);">
					<text transform="matrix(1 0 0 1 520.8223 -131.8311)" style="font-family:'Montserrat-Bold'; font-size:18px;">NETBRAMHA</text>
				</g>
			</g>
		</g>
		<path class="st3" d="M20,104.8V56.3h19.4c5,0,8.9,1.2,11.5,3.5c2.7,2.3,4,5.3,4,9c0,3-0.8,5.5-2.5,7.3c-1.6,1.8-3.6,3.1-6,3.7
			c2.8,0.6,5.1,1.9,6.9,4.1c1.8,2.2,2.7,4.7,2.7,7.6c0,3.8-1.4,7-4.2,9.5c-2.8,2.5-6.7,3.7-11.8,3.7H20z M28.9,76.7h9.3
			c2.5,0,4.4-0.6,5.7-1.7c1.3-1.2,2-2.8,2-4.9c0-2-0.7-3.6-2-4.8c-1.3-1.2-3.3-1.8-5.9-1.8h-9.1V76.7z M28.9,97.6h9.9
			c2.6,0,4.7-0.6,6.1-1.8c1.5-1.2,2.2-2.9,2.2-5.2c0-2.3-0.8-4-2.3-5.3c-1.5-1.3-3.6-1.9-6.2-1.9h-9.8V97.6z"/>
		<path class="st3" d="M61.5,104.8V69.5h7.9l0.8,7.4c1.2-2.2,2.9-4,5.1-5.3c2.1-1.3,4.7-2,7.6-2v9.3h-2.5c-1.9,0-3.7,0.3-5.2,0.9
			c-1.5,0.6-2.7,1.6-3.6,3.1c-0.9,1.5-1.3,3.5-1.3,6.2v15.6H61.5z"/>
		<rect x="88.4" y="69.5" class="st3" width="8.9" height="35.3"/>
		<path class="st3" d="M120.7,105.6c-3.5,0-6.6-0.8-9.3-2.3c-2.7-1.5-4.8-3.6-6.3-6.4c-1.5-2.7-2.3-5.8-2.3-9.3
			c0-3.5,0.8-6.6,2.3-9.3c1.5-2.7,3.7-4.8,6.3-6.4c2.7-1.5,5.8-2.3,9.3-2.3c4.4,0,8.1,1.1,11.1,3.4c3,2.3,4.9,5.4,5.7,9.4h-9.3
			c-0.5-1.7-1.4-3-2.7-3.9c-1.4-0.9-3-1.4-4.8-1.4c-2.4,0-4.5,0.9-6.2,2.8c-1.7,1.8-2.6,4.4-2.6,7.7c0,3.3,0.9,5.8,2.6,7.7
			c1.7,1.8,3.8,2.8,6.2,2.8c1.8,0,3.4-0.5,4.8-1.4c1.4-0.9,2.3-2.2,2.7-3.9h9.3c-0.8,3.9-2.7,7-5.7,9.3
			C128.7,104.4,125,105.6,120.7,105.6"/>
		<polygon class="st3" points="143,104.8 143,54.1 151.8,54.1 151.8,84.3 164,70.4 174.5,70.4 160.5,86.1 176.8,104.8 165.7,104.8 
			151.8,87.5 151.8,104.8 		"/>
		<path class="st3" d="M210.8,105.5c-3.6,0-6.6-0.6-9.3-1.8c-2.6-1.2-4.7-2.9-6.1-5.2c-1.5-2.2-2.2-4.8-2.2-7.8c0-3.1,0.9-6,2.6-8.5
			s4.4-4.6,7.8-6.1c-1.4-1.6-2.4-3.1-3-4.6c-0.6-1.4-0.9-3-0.9-4.6c0-2.2,0.6-4.2,1.7-5.9c1.1-1.7,2.7-3.1,4.7-4.1
			c2.1-1,4.5-1.5,7.4-1.5c2.9,0,5.4,0.5,7.4,1.6c2,1.1,3.6,2.5,4.6,4.3c1,1.8,1.5,3.8,1.4,6h-8.4c0-1.7-0.5-3-1.5-3.8
			c-1-0.9-2.2-1.3-3.6-1.3c-1.6,0-2.8,0.4-3.8,1.3c-0.9,0.9-1.4,2-1.4,3.4c0,1.2,0.4,2.3,1.1,3.5c0.7,1.2,1.8,2.6,3.3,4.2l13.6,13.4
			c1-1.6,2-3.4,3-5.5l1.5-3h9.1l-2.4,4.7c-1.8,3.7-3.7,6.9-5.5,9.5l11.1,11h-10.6l-5.4-5.4c-2.4,2.2-4.9,3.7-7.5,4.7
			C216.9,105,214,105.5,210.8,105.5 M201.8,90.2c0,2.3,0.8,4.2,2.5,5.7c1.7,1.5,3.9,2.3,6.7,2.3c4,0,7.5-1.4,10.5-4.3l-12.8-12.7
			c-2.4,1-4.1,2.3-5.2,3.8C202.4,86.6,201.8,88.3,201.8,90.2"/>
		<path class="st3" d="M259.5,104.8V56.3h19.4c5,0,8.9,1.2,11.5,3.5c2.7,2.3,4,5.3,4,9c0,3-0.8,5.5-2.5,7.3c-1.6,1.8-3.6,3.1-6,3.7
			c2.8,0.6,5.1,1.9,6.9,4.1c1.8,2.2,2.7,4.7,2.7,7.6c0,3.8-1.4,7-4.2,9.5c-2.8,2.5-6.7,3.7-11.8,3.7H259.5z M268.3,76.7h9.3
			c2.5,0,4.4-0.6,5.7-1.7c1.3-1.2,2-2.8,2-4.9c0-2-0.7-3.6-2-4.8c-1.3-1.2-3.3-1.8-5.9-1.8h-9.1V76.7z M268.3,97.6h9.9
			c2.6,0,4.7-0.6,6.1-1.8c1.5-1.2,2.2-2.9,2.2-5.2c0-2.3-0.8-4-2.3-5.3c-1.5-1.3-3.6-1.9-6.2-1.9h-9.8V97.6z"/>
		<path class="st3" d="M318.6,105.6c-3.3,0-6.3-0.8-9-2.3c-2.7-1.5-4.8-3.6-6.3-6.3c-1.5-2.7-2.3-5.8-2.3-9.4c0-3.6,0.8-6.7,2.4-9.4
			c1.6-2.7,3.7-4.8,6.3-6.3c2.7-1.5,5.6-2.3,9-2.3c3.3,0,6.2,0.8,8.9,2.3c2.7,1.5,4.8,3.6,6.3,6.3c1.5,2.7,2.3,5.8,2.3,9.4
			c0,3.6-0.8,6.7-2.3,9.4c-1.5,2.7-3.7,4.8-6.3,6.3C324.8,104.8,321.9,105.6,318.6,105.6 M318.6,97.9c2.3,0,4.3-0.9,6-2.6
			c1.7-1.7,2.6-4.3,2.6-7.7c0-3.4-0.9-6-2.6-7.7c-1.7-1.7-3.7-2.6-6-2.6c-2.4,0-4.4,0.9-6.1,2.6c-1.7,1.7-2.5,4.3-2.5,7.7
			c0,3.4,0.8,6,2.5,7.7C314.3,97,316.3,97.9,318.6,97.9"/>
		<rect x="341.7" y="54.1" class="st3" width="8.9" height="50.6"/>
		<path class="st3" d="M373.8,104.8c-3.6,0-6.5-0.9-8.7-2.6c-2.2-1.8-3.3-4.9-3.3-9.3V77.8H356v-7.4h5.9l1-9.2h7.8v9.2h9.3v7.4h-9.3
			v15c0,1.7,0.4,2.8,1.1,3.4c0.7,0.6,2,0.9,3.7,0.9h4.3v7.5H373.8z"/>
		
			<rect x="87.4" y="50.9" transform="matrix(0.7071 -0.7071 0.7071 0.7071 -11.2715 83.53)" class="st4" width="15.6" height="8.9"/>
		<path class="st4" d="M150.2,136.6v-15.4h6.2c1.6,0,2.8,0.4,3.7,1.1c0.8,0.7,1.3,1.7,1.3,2.8c0,1-0.3,1.7-0.8,2.3
			c-0.5,0.6-1.2,1-1.9,1.2c0.9,0.2,1.6,0.6,2.2,1.3c0.6,0.7,0.9,1.5,0.9,2.4c0,1.2-0.4,2.2-1.3,3c-0.9,0.8-2.1,1.2-3.7,1.2H150.2z
			 M153,127.7h2.9c0.8,0,1.4-0.2,1.8-0.6s0.6-0.9,0.6-1.6c0-0.6-0.2-1.2-0.6-1.5c-0.4-0.4-1-0.6-1.9-0.6H153V127.7z M153,134.3h3.1
			c0.8,0,1.5-0.2,1.9-0.6c0.5-0.4,0.7-0.9,0.7-1.6c0-0.7-0.2-1.3-0.7-1.7c-0.5-0.4-1.1-0.6-2-0.6H153V134.3z"/>
		<path class="st4" d="M170.4,136.9c-1.1,0-2.1-0.2-3.1-0.7c-0.9-0.4-1.6-1.1-2.2-2c-0.5-0.9-0.8-2.1-0.8-3.5v-9.5h2.8v9.5
			c0,1.2,0.3,2.1,0.9,2.7c0.6,0.6,1.4,0.9,2.4,0.9c1,0,1.8-0.3,2.4-0.9c0.6-0.6,0.9-1.5,0.9-2.7v-9.5h2.8v9.5c0,1.4-0.3,2.5-0.8,3.5
			c-0.6,0.9-1.3,1.6-2.2,2C172.6,136.6,171.6,136.9,170.4,136.9"/>
		<rect x="179.9" y="121.2" class="st4" width="2.8" height="15.4"/>
		<polygon class="st4" points="186.2,136.6 186.2,121.2 189,121.2 189,134.4 195.8,134.4 195.8,136.6 		"/>
		<path class="st4" d="M198.7,136.6v-15.4h5.3c1.8,0,3.3,0.3,4.5,1c1.2,0.6,2,1.5,2.6,2.7c0.6,1.2,0.8,2.5,0.8,4.1
			c0,1.6-0.3,2.9-0.8,4.1c-0.6,1.2-1.4,2-2.6,2.7c-1.2,0.6-2.7,1-4.5,1H198.7z M201.5,134.2h2.3c1.3,0,2.3-0.2,3.1-0.6
			c0.7-0.4,1.3-1,1.6-1.8c0.3-0.8,0.5-1.7,0.5-2.8c0-1.1-0.2-2-0.5-2.8c-0.3-0.8-0.9-1.4-1.6-1.8c-0.7-0.4-1.8-0.6-3.1-0.6h-2.3
			V134.2z"/>
		<rect x="214.8" y="121.2" class="st4" width="2.8" height="15.4"/>
		<polygon class="st4" points="221.1,136.6 221.1,121.2 223.9,121.2 231.1,132 231.1,121.2 233.9,121.2 233.9,136.6 231.1,136.6 
			223.9,125.8 223.9,136.6 		"/>
		<path class="st4" d="M244.1,136.9c-1.5,0-2.7-0.3-3.8-1c-1.1-0.7-1.9-1.6-2.5-2.8c-0.6-1.2-0.9-2.6-0.9-4.1c0-1.6,0.3-3,0.9-4.2
			c0.6-1.2,1.5-2.2,2.7-2.8c1.2-0.7,2.5-1,4.1-1c1.8,0,3.3,0.4,4.5,1.3c1.2,0.9,2,2.1,2.3,3.6h-3.1c-0.2-0.7-0.7-1.3-1.3-1.7
			c-0.6-0.4-1.4-0.6-2.4-0.6c-1.5,0-2.7,0.5-3.6,1.5c-0.8,1-1.3,2.3-1.3,4c0,1.7,0.4,3,1.2,3.9c0.8,0.9,2,1.4,3.4,1.4
			c1.4,0,2.4-0.4,3.2-1.1c0.7-0.8,1.1-1.7,1.3-3h-3.9v-2.1h6.7v8.5H249l-0.2-2c-0.5,0.7-1.1,1.3-1.9,1.7
			C246.2,136.7,245.3,136.9,244.1,136.9"/>
		<polygon class="st4" points="260.5,136.6 260.5,121.2 263.8,121.2 268.7,131 273.6,121.2 276.9,121.2 276.9,136.6 274.1,136.6 
			274.1,126 269.8,134.4 267.6,134.4 263.3,126 263.3,136.6 		"/>
		<path class="st4" d="M279.4,136.6l5.6-15.4h3.2l5.6,15.4h-3l-1.2-3.6h-6l-1.3,3.6H279.4z M284.3,130.8h4.5l-2.2-6.4L284.3,130.8z"
			/>
		<polygon class="st4" points="298.2,136.6 298.2,123.5 293.7,123.5 293.7,121.2 305.5,121.2 305.5,123.5 301,123.5 301,136.6 		"/>
		<polygon class="st4" points="308,136.6 308,121.2 318.1,121.2 318.1,123.5 310.8,123.5 310.8,127.7 317.4,127.7 317.4,129.9 
			310.8,129.9 310.8,134.3 318.1,134.3 318.1,136.6 		"/>
		<path class="st4" d="M321.2,136.6v-15.4h5.7c1.2,0,2.2,0.2,3,0.6c0.8,0.4,1.4,1,1.8,1.7c0.4,0.7,0.6,1.5,0.6,2.4
			c0,0.9-0.2,1.8-0.7,2.6c-0.5,0.8-1.3,1.3-2.3,1.7l3.2,6.4h-3.2l-2.9-6.1H324v6.1H321.2z M324,128.5h2.7c0.9,0,1.6-0.2,2.1-0.7
			c0.4-0.5,0.7-1.1,0.7-1.8c0-0.7-0.2-1.3-0.7-1.8c-0.4-0.4-1.1-0.7-2.1-0.7H324V128.5z"/>
		<rect x="335.3" y="121.2" class="st4" width="2.8" height="15.4"/>
		<path class="st4" d="M340.6,136.6l5.6-15.4h3.2l5.6,15.4h-3l-1.2-3.6h-6l-1.3,3.6H340.6z M345.5,130.8h4.5l-2.2-6.4L345.5,130.8z"
			/>
		<polygon class="st4" points="357.4,136.6 357.4,121.2 360.2,121.2 360.2,134.4 367.1,134.4 367.1,136.6 		"/>
		<path class="st4" d="M374.6,136.9c-1.1,0-2.1-0.2-3-0.6c-0.9-0.4-1.5-0.9-2-1.7c-0.5-0.7-0.8-1.6-0.8-2.6h3c0,0.7,0.3,1.3,0.8,1.8
			c0.5,0.5,1.2,0.7,2,0.7c0.7,0,1.3-0.2,1.8-0.5c0.4-0.4,0.7-0.8,0.7-1.4c0-0.6-0.2-1.1-0.6-1.5s-0.9-0.6-1.6-0.9
			c-0.6-0.2-1.3-0.5-2.1-0.7c-1.2-0.4-2.1-0.9-2.7-1.6c-0.6-0.6-0.9-1.5-0.9-2.6c0-0.9,0.2-1.7,0.6-2.3c0.4-0.7,1.1-1.2,1.8-1.5
			c0.8-0.4,1.7-0.5,2.7-0.5c1,0,1.9,0.2,2.7,0.5c0.8,0.4,1.4,0.9,1.8,1.5s0.7,1.4,0.7,2.4h-3c0-0.5-0.2-1-0.6-1.4
			c-0.4-0.4-1-0.6-1.7-0.6c-0.6,0-1.1,0.1-1.6,0.5c-0.4,0.3-0.6,0.8-0.6,1.4c0,0.5,0.2,0.9,0.5,1.2c0.3,0.3,0.8,0.6,1.3,0.8
			c0.6,0.2,1.2,0.4,1.9,0.7c0.8,0.3,1.5,0.6,2.1,0.9c0.6,0.4,1.1,0.8,1.5,1.4c0.4,0.6,0.6,1.3,0.6,2.2c0,0.8-0.2,1.6-0.6,2.2
			c-0.4,0.7-1,1.2-1.8,1.7C376.7,136.6,375.8,136.9,374.6,136.9"/>
	</g>
</g>
</svg>
