<svg id="Layer_1" data-name="Layer 1" xmlns="http://www.w3.org/2000/svg" viewBox="0 0 512 512"><defs><style>.cls-1{fill:#fff;}</style></defs><path class="cls-1" d="M450.27,103.67,257.84,1.13a9.56,9.56,0,0,0-9.11.05L61.62,103.72a9.59,9.59,0,0,0-5,8.4V246.06A277.36,277.36,0,0,0,222.88,499.89l26,11.31a9.53,9.53,0,0,0,7.62,0l29.27-12.63A276.8,276.8,0,0,0,455.35,243.41V112.12A9.56,9.56,0,0,0,450.27,103.67ZM303.32,212.28h36.91a11.92,11.92,0,0,1,0,23.84H303.32A84.31,84.31,0,0,1,220,308.4H201.74l98.7,93.27A11.92,11.92,0,1,1,284.07,419L163.58,305.15a11.92,11.92,0,0,1,8.19-20.59H220a60.44,60.44,0,0,0,59.17-48.43H171.77a11.92,11.92,0,0,1,0-23.84H279.14A60.45,60.45,0,0,0,220,163.84h-48.2a11.92,11.92,0,1,1,0-23.84H340.23a11.92,11.92,0,0,1,0,23.84H278.6A84.05,84.05,0,0,1,303.32,212.28Z"/></svg>